<svg xmlns="http://www.w3.org/2000/svg" version="1.1" xmlns:xlink="http://www.w3.org/1999/xlink" width="512" height="512" x="0" y="0" viewBox="0 0 100 100" style="enable-background:new 0 0 512 512" xml:space="preserve" class=""><g><path d="M87.693 45.279c-2.15-17.164-15.763-30.766-32.917-32.917V7.236A4.736 4.736 0 0 0 50.04 2.5h-.03a4.736 4.736 0 0 0-4.736 4.736v5.096c-17.154 2.16-30.756 15.763-32.917 32.917H7.241a4.736 4.736 0 0 0-4.736 4.736v.03a4.736 4.736 0 0 0 4.736 4.736h5.096c2.15 17.154 15.763 30.756 32.917 32.917v5.096A4.736 4.736 0 0 0 49.99 97.5h.03a4.736 4.736 0 0 0 4.736-4.736v-5.096c17.154-2.16 30.756-15.763 32.917-32.917h5.086a4.736 4.736 0 0 0 0-9.472zm-9.602 9.502c-2 11.902-11.403 21.304-23.315 23.305V73.75a4.736 4.736 0 0 0-4.736-4.736h-.03a4.736 4.736 0 0 0-4.736 4.736v4.336c-11.903-2-21.305-11.403-23.335-23.335h4.336a4.736 4.736 0 0 0 4.736-4.736v-.03a4.736 4.736 0 0 0-4.736-4.736h-4.336c2-11.913 11.403-21.315 23.335-23.335v4.356a4.736 4.736 0 0 0 4.736 4.736h.03a4.736 4.736 0 0 0 4.736-4.736v-4.336c11.912 2 21.315 11.402 23.335 23.345h-4.356a4.736 4.736 0 0 0-4.736 4.736v.03a4.736 4.736 0 0 0 4.736 4.736z" fill="#c3e8a2" opacity="1" data-original="#000000" class=""></path><circle cx="50.015" cy="50.04" r="11.977" fill="#c3e8a2" opacity="1" data-original="#000000" class=""></circle></g></svg>